<?xml version="1.0" encoding="UTF-8" standalone="no"?>
<!DOCTYPE svg PUBLIC "-//W3C//DTD SVG 1.1//EN" "http://www.w3.org/Graphics/SVG/1.1/DTD/svg11.dtd">
<svg width="100%" height="100%" viewBox="0 0 1182 735" version="1.1" xmlns="http://www.w3.org/2000/svg" xmlns:xlink="http://www.w3.org/1999/xlink" xml:space="preserve" xmlns:serif="http://www.serif.com/" style="fill-rule:evenodd;clip-rule:evenodd;stroke-linejoin:round;stroke-miterlimit:2;">
    <g transform="matrix(1,0,0,1,-1675.02,-295.276)">
        <g transform="matrix(6.43448,0,0,6.43448,-20140.6,-31947.7)">
            <path d="M3416.77,5100.16C3416.77,5101.56 3416.41,5102.72 3415.7,5103.65C3414.99,5104.57 3414.05,5105.32 3412.89,5105.88C3411.74,5106.45 3410.42,5106.84 3408.95,5107.07C3407.47,5107.3 3405.97,5107.42 3404.45,5107.42C3403.61,5107.42 3402.71,5107.36 3401.75,5107.26C3400.79,5107.16 3399.83,5106.98 3398.86,5106.72C3397.89,5106.45 3396.96,5106.11 3396.04,5105.67C3395.13,5105.23 3394.3,5104.68 3393.56,5104.02C3392.81,5103.35 3392.18,5102.57 3391.64,5101.66C3391.11,5100.76 3390.75,5099.7 3390.56,5098.5L3400.22,5098.4L3400.6,5102.54L3407.99,5102.54L3408.54,5097.76C3407.56,5097.54 3406.43,5097.35 3405.16,5097.19C3403.9,5097.03 3402.6,5096.84 3401.26,5096.61C3399.93,5096.38 3398.62,5096.08 3397.34,5095.72C3396.06,5095.35 3394.91,5094.85 3393.92,5094.22C3392.92,5093.58 3392.11,5092.78 3391.49,5091.82C3390.87,5090.85 3390.56,5089.65 3390.56,5088.22C3390.56,5086.69 3390.93,5085.39 3391.68,5084.34C3392.43,5083.28 3393.4,5082.43 3394.62,5081.79C3395.83,5081.15 3397.21,5080.68 3398.74,5080.38C3400.28,5080.07 3401.84,5079.9 3403.43,5079.85C3404.27,5079.85 3405.18,5079.9 3406.15,5079.99C3407.13,5080.09 3408.1,5080.26 3409.07,5080.51C3410.03,5080.75 3410.96,5081.09 3411.86,5081.52C3412.76,5081.94 3413.56,5082.49 3414.26,5083.15C3414.97,5083.8 3415.55,5084.6 3416,5085.52C3416.45,5086.45 3416.71,5087.54 3416.77,5088.8L3407.42,5089.2L3407.42,5084.51L3399.39,5084.51L3399.39,5090.84C3400.42,5091.06 3401.57,5091.23 3402.83,5091.35C3404.1,5091.47 3405.38,5091.62 3406.66,5091.82C3407.95,5092.01 3409.2,5092.27 3410.41,5092.6C3411.62,5092.93 3412.7,5093.41 3413.64,5094.03C3414.59,5094.65 3415.34,5095.45 3415.91,5096.43C3416.49,5097.41 3416.77,5098.66 3416.77,5100.16Z" style="fill:white;fill-rule:nonzero;"/>
            <path d="M3446.05,5092.31C3446.05,5094.42 3445.94,5096.57 3445.72,5098.76C3445.49,5100.95 3445.11,5103.14 3444.57,5105.32L3436.3,5105.32C3436.49,5102.96 3436.64,5100.63 3436.76,5098.32C3436.88,5096.01 3436.94,5093.69 3436.94,5091.34L3436.94,5088.97C3436.94,5088.19 3436.92,5087.4 3436.89,5086.61C3436.18,5086.53 3435.47,5086.48 3434.76,5086.45C3434.06,5086.43 3433.35,5086.42 3432.64,5086.42C3431.21,5086.42 3429.78,5086.46 3428.35,5086.56L3428.35,5089.63C3428.35,5092.24 3428.39,5094.85 3428.47,5097.44C3428.55,5100.03 3428.68,5102.66 3428.85,5105.32L3420.86,5105.32C3420.86,5099.58 3420.78,5093.9 3420.62,5088.27C3420.47,5082.64 3420.2,5076.99 3419.84,5071.31L3428.85,5070.79C3428.74,5072.87 3428.65,5074.94 3428.57,5077C3428.49,5079.06 3428.43,5081.13 3428.4,5083.21C3429.32,5082.51 3430.27,5081.97 3431.26,5081.6C3432.24,5081.23 3433.13,5080.95 3433.94,5080.78C3434.89,5080.57 3435.82,5080.45 3436.72,5080.42C3437.88,5080.42 3438.92,5080.58 3439.83,5080.9C3440.74,5081.22 3441.54,5081.66 3442.23,5082.22C3442.92,5082.78 3443.51,5083.44 3443.99,5084.2C3444.47,5084.97 3444.87,5085.79 3445.18,5086.67C3445.49,5087.55 3445.71,5088.47 3445.85,5089.44C3445.98,5090.4 3446.05,5091.36 3446.05,5092.31Z" style="fill:white;fill-rule:nonzero;"/>
            <path d="M3458.89,5080.88C3458.54,5084.41 3458.31,5087.9 3458.19,5091.34C3458.07,5094.78 3458.01,5098.22 3458.01,5101.66L3458.01,5103.48C3458.01,5104.09 3458.03,5104.71 3458.06,5105.32L3450.71,5105.32C3450.71,5104.34 3450.72,5103.37 3450.73,5102.4C3450.75,5101.43 3450.76,5100.47 3450.76,5099.52C3450.76,5096.37 3450.68,5093.24 3450.53,5090.15C3450.38,5087.06 3450.15,5083.97 3449.83,5080.88L3458.89,5080.88ZM3458.89,5073.17C3458.89,5073.72 3458.76,5074.24 3458.49,5074.73C3458.22,5075.21 3457.85,5075.63 3457.37,5075.99C3456.89,5076.34 3456.34,5076.63 3455.7,5076.84C3455.07,5077.06 3454.4,5077.16 3453.68,5077.16C3452.97,5077.16 3452.3,5077.06 3451.68,5076.84C3451.07,5076.63 3450.53,5076.34 3450.07,5075.99C3449.61,5075.63 3449.24,5075.21 3448.97,5074.73C3448.7,5074.24 3448.57,5073.72 3448.57,5073.17C3448.57,5072.63 3448.7,5072.12 3448.97,5071.64C3449.24,5071.15 3449.61,5070.73 3450.07,5070.38C3450.53,5070.02 3451.07,5069.74 3451.68,5069.53C3452.3,5069.32 3452.97,5069.22 3453.68,5069.22C3454.4,5069.22 3455.07,5069.32 3455.7,5069.53C3456.34,5069.74 3456.89,5070.02 3457.37,5070.38C3457.85,5070.73 3458.22,5071.15 3458.49,5071.64C3458.76,5072.12 3458.89,5072.63 3458.89,5073.17Z" style="fill:white;fill-rule:nonzero;"/>
            <path d="M3485.62,5078.93C3485.51,5080.23 3485.24,5081.45 3484.82,5082.59C3484.39,5083.73 3483.84,5084.8 3483.19,5085.79C3482.53,5086.78 3481.79,5087.7 3480.96,5088.55C3480.14,5089.39 3479.27,5090.17 3478.37,5090.89C3480,5092.97 3481.41,5095.12 3482.58,5097.35C3483.75,5099.57 3484.77,5101.89 3485.62,5104.3L3477.44,5106.18C3477.22,5104.02 3476.81,5101.94 3476.2,5099.91C3475.6,5097.89 3474.76,5095.94 3473.66,5094.07C3473.09,5094.39 3472.53,5094.67 3471.98,5094.92C3471.44,5095.16 3470.93,5095.4 3470.47,5095.62L3470.47,5097.76C3470.47,5099.05 3470.49,5100.31 3470.53,5101.54C3470.57,5102.78 3470.59,5104.04 3470.59,5105.32L3463.72,5106.18C3463.72,5100.3 3463.63,5094.41 3463.46,5088.51C3463.28,5082.61 3463,5076.7 3462.6,5070.79L3471.45,5070.79C3471.21,5074.28 3471.01,5077.76 3470.85,5081.22C3470.7,5084.68 3470.59,5088.17 3470.55,5091.67C3471.34,5091.04 3472.04,5090.36 3472.66,5089.65C3473.28,5088.94 3473.83,5088.22 3474.3,5087.51C3474.78,5086.8 3475.18,5086.09 3475.52,5085.38C3475.85,5084.68 3476.13,5084.01 3476.37,5083.37C3476.91,5081.88 3477.27,5080.4 3477.44,5078.93L3485.62,5078.93Z" style="fill:white;fill-rule:nonzero;"/>
            <path d="M3513.78,5100.16C3513.78,5101.56 3513.43,5102.72 3512.71,5103.65C3512,5104.57 3511.06,5105.32 3509.91,5105.88C3508.75,5106.45 3507.43,5106.84 3505.96,5107.07C3504.48,5107.3 3502.99,5107.42 3501.46,5107.42C3500.62,5107.42 3499.72,5107.36 3498.76,5107.26C3497.8,5107.16 3496.84,5106.98 3495.87,5106.72C3494.91,5106.45 3493.97,5106.11 3493.06,5105.67C3492.14,5105.23 3491.32,5104.68 3490.57,5104.02C3489.83,5103.35 3489.19,5102.57 3488.66,5101.66C3488.12,5100.76 3487.76,5099.7 3487.57,5098.5L3497.23,5098.4L3497.61,5102.54L3505.01,5102.54L3505.55,5097.76C3504.57,5097.54 3503.45,5097.35 3502.18,5097.19C3500.91,5097.03 3499.61,5096.84 3498.28,5096.61C3496.94,5096.38 3495.64,5096.08 3494.35,5095.72C3493.07,5095.35 3491.93,5094.85 3490.93,5094.22C3489.93,5093.58 3489.12,5092.78 3488.5,5091.82C3487.88,5090.85 3487.57,5089.65 3487.57,5088.22C3487.57,5086.69 3487.95,5085.39 3488.69,5084.34C3489.44,5083.28 3490.42,5082.43 3491.63,5081.79C3492.84,5081.15 3494.22,5080.68 3495.76,5080.38C3497.29,5080.07 3498.86,5079.9 3500.44,5079.85C3501.28,5079.85 3502.19,5079.9 3503.16,5079.99C3504.14,5080.09 3505.11,5080.26 3506.08,5080.51C3507.04,5080.75 3507.98,5081.09 3508.87,5081.52C3509.77,5081.94 3510.57,5082.49 3511.27,5083.15C3511.98,5083.8 3512.56,5084.6 3513.01,5085.52C3513.46,5086.45 3513.72,5087.54 3513.78,5088.8L3504.44,5089.2L3504.44,5084.51L3496.4,5084.51L3496.4,5090.84C3497.43,5091.06 3498.58,5091.23 3499.85,5091.35C3501.11,5091.47 3502.39,5091.62 3503.68,5091.82C3504.96,5092.01 3506.21,5092.27 3507.42,5092.6C3508.63,5092.93 3509.71,5093.41 3510.66,5094.03C3511.6,5094.65 3512.36,5095.45 3512.93,5096.43C3513.5,5097.41 3513.78,5098.66 3513.78,5100.16Z" style="fill:white;fill-rule:nonzero;"/>
            <path d="M3543.06,5092.31C3543.06,5094.42 3542.95,5096.57 3542.73,5098.76C3542.51,5100.95 3542.12,5103.14 3541.59,5105.32L3533.31,5105.32C3533.5,5102.96 3533.65,5100.63 3533.77,5098.32C3533.89,5096.01 3533.95,5093.69 3533.95,5091.34L3533.95,5088.97C3533.95,5088.19 3533.93,5087.4 3533.9,5086.61C3533.19,5086.53 3532.48,5086.48 3531.78,5086.45C3531.07,5086.43 3530.36,5086.42 3529.65,5086.42C3528.22,5086.42 3526.79,5086.46 3525.37,5086.56L3525.37,5089.63C3525.37,5092.24 3525.41,5094.85 3525.48,5097.44C3525.56,5100.03 3525.69,5102.66 3525.87,5105.32L3517.87,5105.32C3517.87,5099.58 3517.79,5093.9 3517.64,5088.27C3517.48,5082.64 3517.22,5076.99 3516.85,5071.31L3525.87,5070.79C3525.75,5072.87 3525.66,5074.94 3525.58,5077C3525.5,5079.06 3525.44,5081.13 3525.41,5083.21C3526.33,5082.51 3527.28,5081.97 3528.27,5081.6C3529.25,5081.23 3530.14,5080.95 3530.95,5080.78C3531.91,5080.57 3532.83,5080.45 3533.74,5080.42C3534.89,5080.42 3535.93,5080.58 3536.84,5080.9C3537.75,5081.22 3538.55,5081.66 3539.24,5082.22C3539.93,5082.78 3540.52,5083.44 3541,5084.2C3541.49,5084.97 3541.88,5085.79 3542.19,5086.67C3542.5,5087.55 3542.72,5088.47 3542.86,5089.44C3542.99,5090.4 3543.06,5091.36 3543.06,5092.31Z" style="fill:white;fill-rule:nonzero;"/>
            <path d="M3566.46,5106.49C3566.46,5106.03 3566.45,5105.57 3566.44,5105.1C3566.42,5104.63 3566.41,5104.17 3566.41,5103.71C3565.57,5104.47 3564.7,5105.04 3563.79,5105.43C3562.88,5105.82 3562.04,5106.11 3561.28,5106.3C3560.39,5106.52 3559.51,5106.65 3558.64,5106.68C3557.05,5106.68 3555.53,5106.44 3554.06,5105.95C3552.59,5105.47 3551.29,5104.74 3550.15,5103.78C3549.01,5102.81 3548.08,5101.6 3547.38,5100.15C3546.67,5098.7 3546.28,5097.02 3546.2,5095.1C3546.2,5093.16 3546.46,5091.4 3546.98,5089.81C3547.51,5088.21 3548.29,5086.84 3549.34,5085.7C3550.39,5084.56 3551.68,5083.68 3553.24,5083.05C3554.79,5082.43 3556.59,5082.1 3558.64,5082.09C3558.7,5082.09 3558.94,5082.1 3559.36,5082.12C3559.78,5082.15 3560.3,5082.22 3560.92,5082.34C3561.54,5082.46 3562.21,5082.65 3562.94,5082.91C3563.67,5083.17 3564.39,5083.53 3565.11,5083.99L3564.73,5081.07L3574.12,5080.42C3573.93,5084.97 3573.84,5089.5 3573.84,5094C3573.84,5095.1 3573.84,5096.13 3573.85,5097.11C3573.86,5098.08 3573.87,5099.05 3573.89,5100.01C3573.92,5100.97 3573.95,5101.94 3573.99,5102.91C3574.03,5103.89 3574.07,5104.91 3574.12,5105.99L3566.46,5106.49ZM3555.36,5100.73C3557.24,5100.65 3559.1,5100.53 3560.92,5100.35C3562.74,5100.18 3564.54,5099.92 3566.32,5099.57C3566.27,5097.6 3566.19,5095.7 3566.07,5093.86C3565.95,5092.02 3565.79,5090.14 3565.58,5088.22L3564.23,5088.22C3562.69,5088.22 3561.15,5088.28 3559.6,5088.38C3558.06,5088.48 3556.5,5088.65 3554.93,5088.89C3554.74,5090.56 3554.64,5092.23 3554.64,5093.91C3554.64,5094.54 3554.66,5095.13 3554.69,5095.68C3554.72,5096.23 3554.76,5096.77 3554.82,5097.31C3554.88,5097.85 3554.95,5098.4 3555.03,5098.95C3555.12,5099.51 3555.23,5100.1 3555.36,5100.73Z" style="fill:white;fill-rule:nonzero;"/>
        </g>
        <g transform="matrix(1,0,0,1,-3203.68,-424.622)">
            <g transform="matrix(6.67556,0,0,6.67556,-17758.3,-33024.4)">
                <path d="M3419.7,5093.81C3419.7,5095.15 3419.54,5096.37 3419.22,5097.49C3418.9,5098.61 3418.47,5099.62 3417.91,5100.54C3417.36,5101.46 3416.71,5102.27 3415.97,5102.97C3415.24,5103.67 3414.44,5104.25 3413.6,5104.73C3412.75,5105.2 3411.87,5105.57 3410.97,5105.81C3410.06,5106.06 3409.18,5106.18 3408.3,5106.18C3407.26,5106.15 3406.24,5106.02 3405.24,5105.8C3404.81,5105.7 3404.36,5105.58 3403.89,5105.43C3403.43,5105.28 3402.96,5105.09 3402.5,5104.87C3402.04,5104.65 3401.59,5104.39 3401.16,5104.1C3400.72,5103.81 3400.32,5103.46 3399.96,5103.06C3399.99,5103.56 3400.02,5104.04 3400.05,5104.53C3400.08,5105.01 3400.12,5105.48 3400.17,5105.94L3392.18,5105.94C3392.18,5100.23 3392.1,5094.45 3391.94,5088.6C3391.78,5082.75 3391.52,5076.99 3391.16,5071.31L3400.17,5070.79C3400.04,5073.06 3399.94,5075.34 3399.86,5077.64C3399.78,5079.94 3399.72,5082.25 3399.67,5084.56C3400.04,5084.13 3400.43,5083.75 3400.86,5083.42C3401.29,5083.09 3401.74,5082.79 3402.2,5082.54C3402.67,5082.29 3403.14,5082.08 3403.61,5081.91C3404.08,5081.74 3404.52,5081.6 3404.95,5081.49C3405.97,5081.24 3407,5081.1 3408.04,5081.07C3409.87,5081.07 3411.5,5081.36 3412.94,5081.94C3414.39,5082.53 3415.61,5083.37 3416.61,5084.47C3417.6,5085.56 3418.37,5086.9 3418.9,5088.47C3419.43,5090.05 3419.7,5091.83 3419.7,5093.81ZM3399.67,5089.96C3399.67,5091.59 3399.68,5093.21 3399.71,5094.82C3399.73,5096.43 3399.77,5098.03 3399.81,5099.62C3400.42,5099.69 3400.98,5099.76 3401.51,5099.81C3402.05,5099.85 3402.57,5099.89 3403.08,5099.91C3403.6,5099.94 3404.11,5099.96 3404.62,5099.97C3405.12,5099.99 3405.66,5100 3406.21,5100C3407.35,5100 3408.68,5099.95 3410.21,5099.85C3410.4,5098.43 3410.55,5097.01 3410.66,5095.61C3410.77,5094.2 3410.83,5092.78 3410.83,5091.34C3410.83,5090.63 3410.81,5089.92 3410.79,5089.23C3410.77,5088.55 3410.71,5087.84 3410.64,5087.11C3409.78,5087.03 3408.99,5086.96 3408.26,5086.92C3407.53,5086.87 3406.83,5086.84 3406.16,5086.84C3405.04,5086.84 3403.96,5086.91 3402.94,5087.05C3401.92,5087.18 3400.83,5087.39 3399.67,5087.68L3399.67,5089.96Z" style="fill:white;fill-rule:nonzero;"/>
            </g>
            <g transform="matrix(6.67556,0,0,6.67556,-17758.3,-33024.4)">
                <path d="M3442.58,5106.49C3442.58,5106.03 3442.57,5105.57 3442.55,5105.1C3442.54,5104.63 3442.53,5104.17 3442.53,5103.71C3441.69,5104.47 3440.81,5105.04 3439.9,5105.43C3438.99,5105.82 3438.15,5106.11 3437.39,5106.3C3436.5,5106.52 3435.62,5106.65 3434.75,5106.68C3433.17,5106.68 3431.64,5106.44 3430.17,5105.95C3428.71,5105.47 3427.4,5104.74 3426.26,5103.78C3425.12,5102.81 3424.2,5101.6 3423.49,5100.15C3422.78,5098.7 3422.39,5097.02 3422.31,5095.1C3422.31,5093.16 3422.57,5091.4 3423.1,5089.81C3423.62,5088.21 3424.41,5086.84 3425.45,5085.7C3426.5,5084.56 3427.8,5083.68 3429.35,5083.05C3430.91,5082.43 3432.71,5082.1 3434.75,5082.09C3434.82,5082.09 3435.06,5082.1 3435.48,5082.12C3435.9,5082.15 3436.42,5082.22 3437.03,5082.34C3437.65,5082.46 3438.33,5082.65 3439.06,5082.91C3439.78,5083.17 3440.51,5083.53 3441.22,5083.99L3440.84,5081.07L3450.23,5080.42C3450.04,5084.97 3449.95,5089.5 3449.95,5094C3449.95,5095.1 3449.95,5096.13 3449.96,5097.11C3449.97,5098.08 3449.98,5099.05 3450.01,5100.01C3450.03,5100.97 3450.06,5101.94 3450.1,5102.91C3450.14,5103.89 3450.19,5104.91 3450.23,5105.99L3442.58,5106.49ZM3431.47,5100.73C3433.36,5100.65 3435.21,5100.53 3437.03,5100.35C3438.86,5100.18 3440.66,5099.92 3442.43,5099.57C3442.39,5097.6 3442.3,5095.7 3442.18,5093.86C3442.07,5092.02 3441.9,5090.14 3441.7,5088.22L3440.34,5088.22C3438.8,5088.22 3437.26,5088.28 3435.71,5088.38C3434.17,5088.48 3432.61,5088.65 3431.04,5088.89C3430.85,5090.56 3430.76,5092.23 3430.76,5093.91C3430.76,5094.54 3430.77,5095.13 3430.8,5095.68C3430.84,5096.23 3430.88,5096.77 3430.93,5097.31C3430.99,5097.85 3431.06,5098.4 3431.15,5098.95C3431.24,5099.51 3431.34,5100.1 3431.47,5100.73Z" style="fill:white;fill-rule:nonzero;"/>
            </g>
            <g transform="matrix(6.67556,0,0,6.67556,-17758.3,-33024.4)">
                <rect x="3428.45" y="5073.69" width="16.696" height="5.018" style="fill:rgb(13,131,123);fill-rule:nonzero;"/>
            </g>
            <g transform="matrix(6.67556,0,0,6.67556,-17758.3,-33024.4)">
                <path d="M3463.53,5069.86C3463.12,5075.82 3462.84,5081.76 3462.71,5087.66C3462.57,5093.57 3462.51,5099.46 3462.51,5105.32L3455.09,5105.32C3455.16,5102.41 3455.22,5099.51 3455.25,5096.64C3455.28,5093.77 3455.3,5090.89 3455.3,5087.99C3455.3,5084.94 3455.28,5081.92 3455.25,5078.93C3455.22,5075.93 3455.16,5072.91 3455.09,5069.86L3463.53,5069.86Z" style="fill:white;fill-rule:nonzero;"/>
            </g>
        </g>
        <g transform="matrix(2.33194,0,0,2.33194,-4663.19,-11166)">
            <path d="M2971.63,5228.19L2976.52,5228.19L2976.52,5215.03L2983.18,5215.03L2983.18,5210.14L2976.52,5210.14L2976.52,5201.43L2989.41,5201.43L2989.41,5196.54L2971.63,5196.54L2971.63,5228.19Z" style="fill:white;fill-rule:nonzero;"/>
            <path d="M3005.32,5228.54L3006.38,5228.54C3011.98,5228.54 3015.41,5225.16 3015.41,5219.52L3015.41,5205.21C3015.41,5202.41 3014.56,5200.14 3012.96,5198.54C3011.45,5197.03 3009.23,5196.19 3006.38,5196.19L3005.32,5196.19C2999.72,5196.19 2996.3,5199.57 2996.3,5205.21L2996.3,5219.52C2996.3,5222.32 2997.14,5224.59 2998.7,5226.14C3000.25,5227.7 3002.52,5228.54 3005.32,5228.54ZM3001.18,5219.52L3001.18,5205.21C3001.18,5202.32 3002.43,5201.08 3005.32,5201.08L3006.38,5201.08C3009.27,5201.08 3010.52,5202.32 3010.52,5205.21L3010.52,5219.52C3010.52,5222.41 3009.27,5223.65 3006.38,5223.65L3005.32,5223.65C3002.43,5223.65 3001.18,5222.41 3001.18,5219.52Z" style="fill:white;fill-rule:nonzero;"/>
            <path d="M3033.76,5228.54L3034.83,5228.54C3040.43,5228.54 3043.85,5225.16 3043.85,5219.52L3043.85,5196.54L3038.96,5196.54L3038.96,5219.52C3038.96,5222.41 3037.72,5223.65 3034.83,5223.65L3033.76,5223.65C3030.87,5223.65 3029.63,5222.41 3029.63,5219.52L3029.63,5196.54L3024.74,5196.54L3024.74,5219.52C3024.74,5222.32 3025.58,5224.59 3027.14,5226.14C3028.7,5227.7 3030.96,5228.54 3033.76,5228.54Z" style="fill:white;fill-rule:nonzero;"/>
            <path d="M3053.63,5228.19L3058.52,5228.19L3058.52,5207.61L3067.23,5228.19L3072.83,5228.19L3072.74,5196.54L3067.85,5196.54L3067.85,5217.12L3059.14,5196.54L3053.63,5196.54L3053.63,5228.19Z" style="fill:white;fill-rule:nonzero;"/>
            <path d="M3082.96,5228.19L3092.92,5228.19C3098.52,5228.19 3101.94,5224.81 3101.94,5219.16L3101.94,5205.57C3101.94,5202.77 3101.1,5200.5 3099.49,5198.9C3097.98,5197.39 3095.76,5196.54 3092.92,5196.54L3082.96,5196.54L3082.96,5228.19ZM3087.85,5223.3L3087.85,5201.43L3092.92,5201.43C3095.81,5201.43 3097.05,5202.68 3097.05,5205.57L3097.05,5219.16C3097.05,5222.05 3095.81,5223.3 3092.92,5223.3L3087.85,5223.3Z" style="fill:white;fill-rule:nonzero;"/>
            <path d="M3108.65,5228.19L3113.72,5228.19L3116.03,5218.85L3123.67,5218.85L3125.98,5228.19L3131.05,5228.19L3123.23,5196.54L3116.47,5196.54L3108.65,5228.19ZM3117.23,5213.97L3119.85,5203.34L3122.47,5213.97L3117.23,5213.97Z" style="fill:white;fill-rule:nonzero;"/>
            <path d="M3140.83,5228.19L3145.72,5228.19L3145.72,5201.43L3153.49,5201.43L3153.49,5196.54L3133.05,5196.54L3133.05,5201.43L3140.83,5201.43L3140.83,5228.19Z" style="fill:white;fill-rule:nonzero;"/>
            <rect x="3161.94" y="5196.54" width="4.889" height="31.644" style="fill:white;fill-rule:nonzero;"/>
            <path d="M3185.63,5228.54L3186.7,5228.54C3192.3,5228.54 3195.72,5225.16 3195.72,5219.52L3195.72,5205.21C3195.72,5202.41 3194.87,5200.14 3193.27,5198.54C3191.76,5197.03 3189.54,5196.19 3186.7,5196.19L3185.63,5196.19C3180.03,5196.19 3176.61,5199.57 3176.61,5205.21L3176.61,5219.52C3176.61,5222.32 3177.45,5224.59 3179.01,5226.14C3180.56,5227.7 3182.83,5228.54 3185.63,5228.54ZM3181.49,5219.52L3181.49,5205.21C3181.49,5202.32 3182.74,5201.08 3185.63,5201.08L3186.7,5201.08C3189.58,5201.08 3190.83,5202.32 3190.83,5205.21L3190.83,5219.52C3190.83,5222.41 3189.58,5223.65 3186.7,5223.65L3185.63,5223.65C3182.74,5223.65 3181.49,5222.41 3181.49,5219.52Z" style="fill:white;fill-rule:nonzero;"/>
            <path d="M3205.67,5228.19L3210.56,5228.19L3210.56,5207.61L3219.27,5228.19L3224.87,5228.19L3224.78,5196.54L3219.89,5196.54L3219.89,5217.12L3211.18,5196.54L3205.67,5196.54L3205.67,5228.19Z" style="fill:white;fill-rule:nonzero;"/>
        </g>
        <g transform="matrix(1.11299,0,0,1.11299,-2011.41,-1130.91)">
            <g transform="matrix(0.5676,0.0187563,-0.0187563,0.5676,-361.721,89.7679)">
                <path d="M8168.14,2130.59C8184.89,2148.66 8215.12,2203.28 8222.62,2210.37C8222.62,2210.37 8218.47,2213.01 8218.81,2213.45C8224.47,2220.93 8229.5,2227.27 8234.87,2232.5C8251.11,2248.33 8277.99,2247 8300.25,2255.41C8308.46,2258.52 8325.42,2247.99 8326.25,2250.93C8332.01,2271.61 8304.96,2274.64 8304.96,2274.64C8284.99,2287.08 8277.21,2281.58 8265.4,2283.16C8254.04,2284.67 8248.33,2286.1 8238.81,2288.94C8229.37,2291.75 8231.65,2299.38 8211.3,2299.69C8206.01,2299.77 8199.76,2293.75 8199.61,2288.9C8199.22,2276.03 8198.56,2270.52 8196.36,2261.46C8194.26,2252.84 8192.22,2243.29 8186.25,2236.88C8185.93,2236.54 8184.61,2237.89 8182.14,2239.93C8178.2,2243.18 8172.01,2246.99 8172.01,2246.99C8167.63,2225.86 8124.95,2192.55 8111.81,2170.6C8111.81,2170.6 8057.28,2273.81 8008.55,2297.06C7976.62,2312.29 7919.48,2314.93 7902.43,2297.19C7799.46,2190.1 7917.69,2026.19 7917.69,2026.19C7919.12,2019.77 7934.36,2010.99 7940.07,2003.14C7940.74,2001.57 7943.55,2003.47 7948.5,2004.54C7951.55,2000.33 7954.8,1996.02 7956.35,1994.55C7957.69,1993.29 7961.85,1995.16 7961.85,1995.16C7968.75,1988.26 7972.38,1978.89 7972.38,1966.81C7971.84,1966.31 7971.3,1965.8 7970.76,1965.26C7965.18,1970.54 7960,1973.98 7953.62,1975.3C7952.01,1985.81 7944.09,1992.07 7931.3,1990.13C7929.55,2001 7921.08,2003.53 7908.08,2000.43C7896.32,2029.42 7845.46,2019.05 7855.06,1981.59C7855.06,1981.59 7862.91,1991.99 7868.24,1989.04C7885.25,1979.62 7901.22,1985.72 7901.22,1985.72C7904.74,1975.1 7912.02,1972.86 7922.51,1975.13C7926.34,1963.72 7934.1,1960.42 7943.3,1962.41C7943.45,1962.07 7943.61,1961.74 7943.77,1961.4C7939.65,1961.88 7935.81,1961.67 7931.95,1960.53C7925.57,1969.03 7915.63,1970.81 7905.27,1963.06C7898.59,1971.81 7889.93,1970.04 7879.94,1961.17C7855.89,1981.16 7815.95,1947.99 7842.11,1919.51C7842.11,1919.51 7844.12,1932.39 7850.21,1932.3C7869.65,1932.03 7880.85,1944.96 7880.85,1944.96C7888.96,1937.26 7896.44,1938.73 7904.61,1945.68C7913.38,1937.43 7921.78,1938.19 7928.94,1944.3C7938.07,1937.38 7945.9,1936.09 7952.85,1938.66C7944.34,1918.36 7943.08,1891.41 7965.33,1863C8015.02,1799.58 8091.79,1861.37 8089.02,1870.61C8089.02,1870.61 8116.96,1884.8 8121.41,1905.44C8127.69,1934.53 8105.22,1938.64 8105.22,1938.64C8113.05,1929.58 8115.38,1920.89 8112.53,1912.57C8109.1,1932.35 8094.29,1946.32 8090.84,1955.38C8089.37,1959.26 8090.08,1963.21 8091.83,1966.97C8093.42,1970.39 8097.63,1975.15 8096.85,1979.03C8095.79,1984.38 8086.7,1982.44 8084.49,1985.34C8082.48,1987.99 8084.14,1993.05 8083.68,1995.03C8083.45,1995.98 8082.42,1997.36 8081.46,1997.58C8080.2,1997.88 8077.98,1996.81 8076.78,1998.15C8075.4,1999.69 8075.08,2004.3 8073.88,2005.87C8073.01,2007 8070.36,2006.22 8069.24,2007.11C8066.25,2009.48 8065.79,2018.82 8055.11,2020.02C8044.03,2021.26 8030.54,2007.49 8022.73,2008.3C8020.74,2008.5 8018.76,2009.82 8016.93,2011.64L8022.09,2013.14L8027.4,2017.39L8027.67,2029.68C8035.81,2034.16 8036.15,2049.03 8035.69,2064.96L8048.21,2099.28L8048.22,2099.3C8048.22,2099.3 8048.22,2099.3 8048.23,2099.29L8057.38,2106.18L8059.32,2103.25L8069.4,2107.35C8069.36,2109.93 8068.39,2112.43 8068.35,2115.01C8068.34,2115.45 8068.95,2115.66 8069.26,2115.99C8069.42,2116.17 8069.5,2116.51 8069.74,2116.52C8071.14,2116.54 8071.13,2116.41 8087.16,2115.62C8087.61,2115.6 8088.06,2115.6 8088.51,2115.57L8088.43,2113.42L8071.32,2113.82L8072.75,2105.54L8058.02,2098.49L8056.53,2100.44L8051.27,2096.04C8060.06,2086.83 8086.05,2061.28 8104.08,2060.55C8128.15,2059.58 8147.11,2086.07 8151.53,2092.8C8147.4,2095.07 8143.64,2097.34 8140.28,2099.37C8132.01,2104.36 8129.74,2105.62 8126.13,2106.59L8126.45,2107.86L8127.24,2107.67C8135.9,2105.53 8153.47,2090.92 8176.43,2084.81C8193.26,2080.33 8204.72,2082.83 8205.06,2082.68C8205.62,2082.43 8205.98,2081.87 8206.44,2081.46C8225.71,2064.4 8237.28,2054.03 8283.25,2012.49L8282.86,2012.05C8284.13,2013.03 8285.21,2015.02 8286.09,2018.16C8265.83,2035.44 8265.26,2036.08 8251.14,2048.59L8251.24,2048.7C8267.67,2035.24 8269.18,2034.02 8289.43,2016.7C8290.11,2026.57 8290.97,2036.26 8294.15,2043.62L8294.59,2047.94L8231.09,2094.1C8230.98,2107.36 8224.58,2120.38 8218.84,2124.99C8214.3,2128.64 8198.44,2122.54 8197.41,2122.14L8197.42,2122.13C8195.67,2121.72 8190.19,2119.99 8182.61,2121.82C8180.23,2122.4 8177.89,2123.25 8175.44,2124.34C8173.74,2124.95 8172.19,2125.7 8170.85,2126.59C8166.65,2128.81 8162,2131.61 8156.38,2134.86L8156.98,2135.99C8161.17,2133.95 8164.84,2132.13 8168.14,2130.59ZM8180.95,2081.22L8250.1,2021.17C8254.42,2020.47 8258.74,2023.14 8263.06,2027.41C8220.65,2064.8 8218.63,2066.77 8204.12,2079.78C8200.24,2079.41 8192.08,2078.8 8180.95,2081.22ZM8289.33,2015.92L8289.38,2015.88C8289.38,2015.91 8289.38,2015.95 8289.38,2015.98L8289.33,2015.92Z" style="fill:rgb(13,131,123);"/>
            </g>
            <g transform="matrix(0.55841,-0.00463567,0.00463567,0.55841,-341.968,300.389)">
                <path d="M7572.56,2124.94C7574.59,2125.56 7576.68,2126.27 7580.45,2127.85C7585.81,2130.11 7587.22,2130.78 7590.19,2132.28L7590.32,2132.07C7584.24,2127.6 7580.22,2125.45 7573.93,2123.48C7572.44,2122.72 7565.34,2119.23 7561.28,2119.16C7553.38,2119.03 7535.1,2126.66 7527.46,2122.2C7519.81,2117.73 7515.4,2092.38 7515.4,2092.38L7451.83,2046.04L7451.88,2041.2C7454.4,2040.21 7456.07,2028.93 7457.6,2015.74C7477.47,2032.48 7479.12,2033.65 7496.41,2046.49L7496.68,2046.16C7481.34,2031.68 7479.64,2030.02 7460.83,2014.3L7462.6,2009.87L7481.76,2026.95L7481.76,2026.96L7513.9,2054.92C7516.16,2056.88 7541.59,2078.94 7542.22,2079.39C7542.9,2079.88 7542.96,2079.75 7543.81,2079.75C7575.18,2079.72 7603.66,2093.17 7621.7,2102.91L7621.92,2102.52C7615.72,2098.87 7606.45,2093.61 7595.24,2088.8C7599.3,2083.76 7621.58,2057.37 7641.92,2057.5C7658.48,2057.6 7688,2086.48 7696.41,2095.07L7689.79,2100.36C7687.43,2098.05 7687.48,2097.76 7687.14,2097.92C7686.71,2098.12 7674.81,2104.21 7674.74,2104.26C7674.3,2104.58 7674.14,2105.17 7673.96,2105.68L7674.62,2113.2C7673.19,2113.22 7657.53,2113.36 7656.79,2113.37L7656.77,2113.8C7658.29,2113.94 7674.82,2115.5 7675.83,2115.55C7675.84,2115.55 7677.14,2114.4 7677.14,2114.39L7676.94,2106.49L7687.26,2101.43C7688.56,2101.9 7689.43,2103.23 7690.74,2103.7C7690.74,2103.7 7690.74,2103.7 7698.62,2097.36C7698.68,2097.42 7698.71,2097.45 7698.71,2097.45C7703,2082.03 7708.1,2073.93 7710.63,2060.87C7712.48,2051.35 7710.49,2042.03 7711.68,2038C7712.93,2033.81 7718.7,2026.91 7718.7,2026.91L7719.31,2015.39C7720.37,2013.17 7721.75,2012.67 7723.38,2011.4C7722.77,2007.05 7720.83,2004.52 7717.96,2003.27C7717.96,2003.27 7692.51,2022.87 7684.91,2021.62C7679.66,2020.76 7673.63,2008.07 7673.63,2008.07C7669.44,2008.22 7666.46,2007.07 7666.98,2002.16C7664.53,2002.15 7662.04,2002.3 7659.84,2001.42C7660.4,1997.05 7660.39,1993.45 7659.31,1991.28C7659.31,1991.28 7647.04,1991.95 7646.08,1989.48C7644.59,1985.67 7654.13,1970.35 7649.98,1962.12C7642.4,1947.05 7630.48,1949.02 7628.64,1913.11C7626.17,1918.53 7623,1922.1 7618.64,1922.48C7619.72,1919.45 7619.51,1916.9 7618.27,1914.72C7618.27,1914.72 7612.8,1905.79 7612.61,1898.83C7612.46,1893.45 7616.67,1882.45 7616.67,1882.45C7612.62,1879.71 7609.39,1875.91 7608.91,1868.54C7614.06,1869.89 7621.47,1868.63 7624.84,1864.82C7628.92,1860.2 7630.73,1846.7 7633.58,1841.62C7635.32,1838.5 7642.71,1834.14 7642.71,1834.14C7642.08,1834.59 7642.2,1841.31 7643.15,1839.23C7647.23,1830.22 7647.92,1828.77 7652.87,1825.97C7655.07,1831.75 7658.49,1834.05 7662.96,1834.13C7662.96,1834.13 7676.69,1828.84 7681.22,1827.98C7684.29,1827.4 7690.94,1829.06 7690.94,1829.06C7687.46,1826.76 7685.11,1823.96 7684.06,1820.59C7684.06,1820.59 7695.09,1825.18 7700.93,1826.26C7707.52,1827.47 7717.31,1825.6 7723.59,1827.86C7729.61,1830.02 7738.61,1839.8 7738.61,1839.8C7739.59,1836.92 7742.27,1835.13 7746.37,1834.26C7742.8,1836.81 7741.28,1839.72 7741.94,1843.01C7741.94,1843.01 7750.72,1841.8 7754.5,1843.62C7762.03,1847.26 7769.46,1861.23 7769.46,1861.23C7766.95,1858.45 7764.44,1857.03 7763.09,1857.91C7763.09,1857.91 7777.02,1873.77 7778.64,1882.74C7781.5,1898.55 7777.21,1934.5 7775.99,1956C7775.68,1961.5 7774.16,1963.31 7774.13,1966.59C7774.09,1970.58 7777.42,1979.27 7777.42,1979.27C7782.88,1976.76 7788.68,1974.77 7795.52,1974.32C7795.89,1978.34 7796.07,1982.08 7796.1,1985.58C7796.1,1985.58 7807.9,1997.72 7815.99,2002.96C7822.62,2007.25 7825.69,2017.65 7829.55,2025.53C7831.94,2030.41 7838.29,2038.02 7842.84,2047.79C7850.18,2063.53 7859.53,2079.49 7865.46,2094.03C7870.37,2106.08 7872.58,2118.3 7872.58,2118.3C7872.58,2118.3 7906.82,2233.62 7849.07,2288.56C7823.52,2312.86 7755.15,2300.63 7740.83,2295.54C7712.91,2285.63 7680.63,2233 7647.65,2224.36C7649.86,2212.76 7652.86,2201.69 7657.6,2191.78C7650.64,2182.7 7643.18,2172.36 7636.22,2161.6C7632.3,2178.61 7573.57,2212.2 7551.61,2243.62C7544.78,2253.41 7546.57,2275.46 7546.38,2286.81C7546.27,2293.01 7537.33,2297.58 7531.37,2297.78C7521.53,2298.11 7516.66,2290.53 7508.43,2287.24C7496.65,2282.52 7475.47,2280.84 7457.28,2280.08C7451.41,2279.83 7441.7,2271.8 7441.7,2271.8C7424.09,2270.52 7415.11,2259.35 7420.15,2247.56C7420.47,2246.79 7442.88,2255.66 7444.63,2253.91C7444.63,2253.91 7460.12,2249.44 7476.81,2244.43C7487.76,2241.14 7499.47,2238.87 7506.83,2233.07C7527.05,2217.17 7563.45,2136.28 7572.56,2124.94ZM7565.45,2079.21C7555.2,2077.09 7547.82,2076.87 7543.76,2076.8L7515.68,2052.23L7484.35,2025.01C7487.62,2022.51 7491.42,2020.5 7496.11,2019.32L7565.45,2079.21Z" style="fill:rgb(13,131,123);"/>
            </g>
        </g>
        <g transform="matrix(-1.21884,0,0,1.21884,8141.73,-2015.75)">
            <path d="M4614.82,2170.39C4605.32,2165.15 4590.1,2161.53 4579.1,2159.66C4522,2149.94 4454.38,2162.04 4337.82,2163.26C4337,2163.27 4336.38,2163.33 4335.86,2163.35C4336.67,2167.19 4338.47,2174.96 4339.42,2179.68C4451.96,2161.84 4548.99,2156.7 4615.44,2172.16C4616.1,2172.68 4617.12,2172.67 4617.71,2172.16C4684.17,2156.7 4781.19,2161.84 4893.74,2179.68C4894.68,2174.96 4896.49,2167.19 4897.29,2163.35C4896.78,2163.33 4896.16,2163.27 4895.34,2163.26C4778.78,2162.04 4711.15,2149.94 4654.06,2159.66C4643.06,2161.53 4627.84,2165.15 4618.33,2170.39C4618.33,2170.38 4618.32,2170.38 4618.32,2170.37L4618.32,2170.39L4614.82,2170.39L4614.82,2170.39ZM4617.47,2169.4C4663.41,2146.94 4720.18,2154.89 4881.39,2160.45C4882.42,2157.57 4886.35,2148.39 4887.36,2146.36C4867.03,2148.88 4840.31,2152.43 4802.42,2150.14C4724.46,2145.43 4646.37,2140.69 4618.02,2167.04C4618.01,2167.03 4618.01,2167.03 4618.01,2167.03L4618.01,2167.04L4615.13,2167.04L4615.13,2167.03C4586.77,2140.69 4508.68,2145.43 4430.74,2150.14C4392.85,2152.43 4366.13,2148.88 4345.79,2146.36C4346.81,2148.39 4350.73,2157.57 4351.77,2160.45C4512.97,2154.89 4569.75,2146.94 4615.68,2169.4L4617.47,2169.4ZM4617.29,2165.73C4617.29,2165.73 4617.28,2165.72 4617.28,2165.72C4657.87,2128.93 4776.86,2154.45 4866.48,2147C4866.33,2146.5 4866.37,2146.3 4866.41,2145.48C4866.69,2140.59 4867.73,2137.07 4869.26,2133.62C4847.29,2138.44 4821.3,2140.98 4777.84,2139.27C4701.02,2136.26 4636.73,2132.6 4616.58,2164.56C4596.42,2132.6 4532.14,2136.26 4455.32,2139.27C4411.86,2140.98 4385.86,2138.44 4363.9,2133.62C4365.43,2137.07 4366.47,2140.59 4366.74,2145.48C4366.79,2146.3 4366.83,2146.5 4366.68,2147C4456.3,2154.45 4575.28,2128.93 4615.87,2165.72C4615.87,2165.72 4615.87,2165.73 4615.87,2165.73L4617.29,2165.73Z" style="fill:rgb(13,131,123);"/>
        </g>
    </g>
</svg>
